Coordinates
version=1
nRows=9
nColumns=63
inDegrees=yes

Units are S.I. units (second, meters, Newtons, ...)
If the header above contains a line with 'inDegrees', this indicates whether rotational values are in degrees (yes) or radians (no).

endheader
time	pelvis_tilt	pelvis_list	pelvis_rotation	pelvis_tx	pelvis_ty	pelvis_tz	hip_flexion_r	hip_adduction_r	hip_rotation_r	knee_angle_r	knee_angle_r_beta	ankle_angle_r	subtalar_angle_r	mtp_angle_r	hip_flexion_l	hip_adduction_l	hip_rotation_l	knee_angle_l	knee_angle_l_beta	ankle_angle_l	subtalar_angle_l	mtp_angle_l	L5_S1_Flex_Ext	L5_S1_Lat_Bending	L5_S1_axial_rotation	L4_L5_Flex_Ext	L4_L5_Lat_Bending	L4_L5_axial_rotation	L3_L4_Flex_Ext	L3_L4_Lat_Bending	L3_L4_axial_rotation	L2_L3_Flex_Ext	L2_L3_Lat_Bending	L2_L3_axial_rotation	L1_L2_Flex_Ext	L1_L2_Lat_Bending	L1_L2_axial_rotation	L1_T12_Flex_Ext	L1_T12_Lat_Bending	L1_T12_axial_rotation	Abs_r3	Abs_r2	Abs_r1	Abs_t1	Abs_t2	neck_flexion	neck_bending	neck_rotation	arm_flex_r	arm_add_r	arm_rot_r	elbow_flex_r	pro_sup_r	wrist_flex_r	wrist_dev_r	arm_flex_l	arm_add_l	arm_rot_l	elbow_flex_l	pro_sup_l	wrist_flex_l	wrist_dev_l
      0.59322034	      9.86514254	      5.97069837	     89.23637774	      0.10765401	      0.79106691	      0.83914083	      0.36906439	      6.15389487	     -3.81442368	      9.55372606	      0.16674398	     29.98221309	     15.08617383	      0.00000000	     -3.65475967	     -4.41728485	     11.64199081	      3.66470967	      0.06396125	     26.04712156	    -16.21918498	      0.00000000	     -0.08793876	      1.22981234	      1.27960598	     -0.16331108	      1.63565041	      1.35958136	     -0.14447459	      2.99016571	      1.35958136	     -0.10050521	      2.99016571	      1.11965523	     -0.08165993	      2.50783331	      1.03967986	     -0.05024821	      1.90497931	      0.95970449	     -0.62813779	     13.91188310	      7.11678459	      0.00000000	      0.00000000	      1.22041261	     -1.31434989	     11.38294780	      5.06110542	    -23.88871897	     49.89686964	     26.51874367	     72.05267453	     -1.64424175	      6.72621473	      7.47981055	    -11.69946932	     54.85931117	     32.49287710	     89.07320508	     -7.58031630	     10.40432785
      0.61016949	      9.90890457	      6.13382187	     89.13188118	      0.10781192	      0.79134385	      0.83867011	      0.27844999	      6.17738996	     -3.66795283	      9.85974256	      0.17208497	     30.02982283	     14.92006749	      0.00000000	     -3.88123358	     -4.47507917	     11.55010446	      3.72752096	      0.06505751	     25.78154100	    -16.17998665	      0.00000000	     -0.11095903	      1.23290977	      1.30522792	     -0.20606201	      1.63977000	      1.38680467	     -0.18229459	      2.99769682	      1.38680467	     -0.12681507	      2.99769682	      1.14207443	     -0.10303655	      2.51414961	      1.06049769	     -0.06340199	      1.90977724	      0.97892094	     -0.79256924	     13.94692193	      7.25928613	      0.00000000	      0.00000000	      0.61753149	     -1.49754118	     11.26161780	      5.47573344	    -24.10959825	     52.34637383	     25.56055762	     75.33072674	     -2.21502520	      6.89116941	      8.16825676	    -11.96723064	     57.44359570	     31.64261951	     89.12820362	     -6.04701860	     11.74860442
      0.62711864	      9.98530293	      6.23986990	     89.18490285	      0.10762904	      0.79150040	      0.83867612	      0.34794763	      6.22285650	     -3.77006599	     10.33047518	      0.18030081	     30.11628510	     14.70946511	      0.00000000	     -3.97799153	     -4.56234399	     11.84071455	      3.82942510	      0.06683608	     25.26742781	    -16.43175404	      0.00000000	     -0.12667995	      1.24444347	      1.33275193	     -0.23525734	      1.65510982	      1.41604893	     -0.20812249	      3.02573986	      1.41604893	     -0.14478252	      3.02573986	      1.16615794	     -0.11763500	      2.53766913	      1.08286094	     -0.07238493	      1.92764294	      0.99956395	     -0.90486224	     14.07739346	      7.41236641	      0.00000000	      0.00000000	      0.27570243	     -2.04843138	     11.07513186	      5.62069630	    -24.28481778	     53.82288882	     24.75300316	     80.37965637	     -2.34358299	      7.30539418	      9.37913277	    -11.88555683	     62.22631784	     30.02282921	     89.10852537	     -5.91432501	     11.36948087
      0.64406780	     10.00066850	      6.16740187	     89.34180439	      0.10761584	      0.79111050	      0.83890525	      0.72743140	      6.21017407	     -3.95903178	     11.01604299	      0.19226622	     30.36303086	     14.46522905	      0.00000000	     -3.83106049	     -4.60615900	     12.30689680	      3.97606068	      0.06939535	     24.74105705	    -16.65962325	      0.00000000	     -0.12125461	      1.24380696	      1.29644778	     -0.22518194	      1.65426325	      1.37747576	     -0.19920920	      3.02419223	      1.37747576	     -0.13858189	      3.02419223	      1.13439180	     -0.11259703	      2.53637115	      1.05336382	     -0.06928488	      1.92665698	      0.97233583	     -0.86610956	     14.07019306	      7.21045360	      0.00000000	      0.00000000	      0.35655043	     -2.83739453	     11.08189337	      6.14250381	    -24.42953895	     56.98182375	     24.15130905	     83.69560612	     -2.50061234	      8.04876426	      9.58186337	    -11.97851646	     63.59584458	     29.38927290	     89.10642480	     -5.30955363	     11.87830554
      0.66101695	     10.01523699	      6.08967482	     89.71991590	      0.10752506	      0.79063692	      0.83949112	      1.15818939	      6.21790299	     -4.31033819	     11.71425743	      0.20445236	     30.59258066	     14.11219806	      0.00000000	     -3.58593863	     -4.66262390	     13.13081978	      4.20976565	      0.07347427	     24.25508078	    -17.01635467	      0.00000000	     -0.11461456	      1.23751422	      1.21438822	     -0.21285070	      1.64589391	      1.29028749	     -0.18830026	      3.00889208	      1.29028749	     -0.13099298	      3.00889208	      1.06258969	     -0.10643108	      2.52353900	      0.98669043	     -0.06549076	      1.91690953	      0.91079117	     -0.81868035	     13.99900837	      6.75406297	      0.00000000	      0.00000000	      0.68338697	     -3.50035434	     11.09151411	      6.82027921	    -24.39927327	     60.71797063	     23.40822662	     86.11232555	     -2.84858285	      7.96830132	      9.58633032	    -12.08140733	     64.42115946	     28.81595327	     89.05389670	     -5.46338644	     11.69623719
      0.67796610	     10.00695580	      6.00852864	     90.20488104	      0.10750812	      0.79015805	      0.84027417	      1.59288044	      6.22472035	     -4.59329620	     12.33676580	      0.21531718	     30.78691983	     13.60772363	      0.00000000	     -3.34408622	     -4.71574396	     14.10708595	      4.36585579	      0.07619856	     23.76004583	    -17.41375250	      0.00000000	     -0.10701286	      1.22383289	      1.06055124	     -0.19873359	      1.62769774	      1.12683569	     -0.17581143	      2.97562728	      1.12683569	     -0.12230500	      2.97562728	      0.92798233	     -0.09937214	      2.49564002	      0.86169788	     -0.06114715	      1.89571714	      0.79541343	     -0.76438218	     13.84424238	      5.89846782	      0.00000000	      0.00000000	      1.09444684	     -3.72247457	     11.47045716	      8.37315611	    -24.07999444	     68.22019682	     22.05128785	     86.02163411	     -3.93043316	      6.68349492	      9.15258467	    -12.28912854	     63.89361836	     28.49036591	     88.97694205	     -5.97611040	     11.16079805
      0.69491525	      9.85501243	      5.79432486	     90.41434883	      0.10820560	      0.78939594	      0.84136656	      2.27714356	      6.11052507	     -4.43073212	     13.13039535	      0.22916863	     31.09141523	     12.88876102	      0.00000000	     -2.95061880	     -4.61118848	     14.52938409	      4.59064631	      0.08012189	     23.48054290	    -17.50950053	      0.00000000	     -0.09132576	      1.18883907	      0.97094335	     -0.16960107	      1.58115597	      1.03162731	     -0.15003910	      2.89054332	      1.03162731	     -0.10437621	      2.89054332	      0.84957543	     -0.08480510	      2.42428064	      0.78889147	     -0.05218354	      1.84151172	      0.72820751	     -0.65233079	     13.44838536	      5.40009562	      0.00000000	      0.00000000	      1.79226531	     -3.99431561	     11.60208135	      9.73699132	    -23.56804482	     74.71478224	     20.95432465	     85.48060403	     -4.88765045	      5.72765689	      8.44125299	    -12.68714912	     61.82516060	     28.79688224	     88.94251317	     -5.86499475	     11.35292652
      0.71186441	      9.68940773	      5.57323578	     90.30712744	      0.10912167	      0.78881470	      0.84240585	      2.92995683	      5.90931332	     -4.56525394	     13.83073592	      0.24139188	     31.36690755	     13.10639166	      0.00000000	     -2.61960334	     -4.46563852	     14.39296189	      4.76668202	      0.08319430	     23.35244841	    -17.40192247	      0.00000000	     -0.07375956	      1.15592061	      0.95288425	     -0.13697887	      1.53737442	      1.01243952	     -0.12117958	      2.81050538	      1.01243952	     -0.08429980	      2.81050538	      0.83377372	     -0.06849312	      2.35715332	      0.77421846	     -0.04214621	      1.79052103	      0.71466319	     -0.52685714	     13.07600518	      5.29965635	      0.00000000	      0.00000000	      2.42501750	     -4.16223528	     11.66093296	     10.74592717	    -23.11739591	     79.49018326	     20.17477491	     85.42743254	     -5.76193236	      4.88497427	      7.96558781	    -12.93087418	     60.63220847	     28.75354999	     88.91824769	     -5.91761538	     10.64780335
      0.72881356	      9.58039810	      5.40319331	     90.12999027	      0.11026223	      0.78847609	      0.84333727	      3.39673815	      5.97119962	     -3.19417095	     14.23063049	      0.24837136	     31.32203286	     11.42825733	      0.00000000	     -2.37328580	     -4.38651327	     14.28928277	      4.86737592	      0.08495174	     23.20055665	    -17.65740562	      0.00000000	     -0.06268449	      1.12880226	      0.95962652	     -0.11641137	      1.50130701	      1.01960318	     -0.10298435	      2.74456982	      1.01960318	     -0.07164211	      2.74456982	      0.83967321	     -0.05820882	      2.30185357	      0.77969655	     -0.03581792	      1.74851470	      0.71971989	     -0.44774905	     12.76923695	      5.33715482	      0.00000000	      0.00000000	      2.70389109	     -4.14582787	     11.68440383	     11.51960828	    -22.67155473	     82.79755129	     19.58524064	     85.51597501	     -6.50318717	      4.37794376	      7.75642489	    -13.18311704	     60.33073317	     28.76170647	     88.88280558	     -6.29401915	     10.25734042
